# xmcd
#
# Track frame offsets: 
#        150
#        13855
#        27209
#        42497
#        53587
#        65756
#        79935
#        91821
#        107264
#        120262
#        133283
#        143833
#
# Disc length: 2169 seconds
#
# Revision: 0
# Processed by: cddbd v1.5.2PL0 Copyright (c) Steve Scherf et al.
# Submitted via: ExactAudioCopy v0.99pb3
#
DISCID=9b08770c
DTITLE=Downchild Blues Band - So Far Songs
DYEAR=1977
DGENRE=Blues
TTITLE0=Flip, Flop, and Fly
TTITLE1=Goin' Dancin'
TTITLE2=Stagger Lee
TTITLE3=Gonna Tell You Mother
TTITLE4=(I Got Everything I Need) Almost
TTITLE5=Caledonia
TTITLE6=Dig Myself a Hole
TTITLE7=Let's Go Strollin'
TTITLE8=Madison Blues
TTITLE9=Bring It On Home
TTITLE10=One More Chance
TTITLE11=For Pete's Sake
EXTD=
EXTT0=
EXTT1=
EXTT2=
EXTT3=
EXTT4=
EXTT5=
EXTT6=
EXTT7=
EXTT8=
EXTT9=
EXTT10=
EXTT11=
PLAYORDER=
